<mxfile host="app.diagrams.net" modified="2024-10-16T08:46:08.775Z" agent="Mozilla/5.0 (Windows NT 10.0; Win64; x64) AppleWebKit/537.36 (KHTML, like Gecko) Chrome/129.0.0.0 Safari/537.36 Edg/129.0.0.0" version="24.6.5" etag="y-ZBEq6lOJ0VagRNOxlE" type="github">
  <diagram name="Page-1" id="Jq3mlUzpHsHdA0C7o6Se">
    <mxGraphModel>
      <root>
        <mxCell id="0" />
        <mxCell id="1" parent="0" />
      </root>
    </mxGraphModel>
  </diagram>
</mxfile>
